PathFileType	4	(X/Y/Z)	C:/Users/beibeiliu/ov580/test_trc\sequence.28_training_dense_right.trc
DataRate	CameraRate	NumFrames	NumMarkers	Units	OrigDataRate	OrigDataStartFrame	OrigNumFrames
120	120	22	19	mm	120	84	333
Frame#	Time	ThumbCMC			ThumbMCP			ThumbIP			ThumbTip			IndexMCP			IndexPIP			IndexTip			MiddleMCP			MiddlePIP			MiddleTip			RingMCP			RingPIP			RingTip			PinkyMCP			PinkyPIP			PinkyTip			BackHand1			BackHand2			BackHand3	
		X0	Y0	Z0	X1	Y1	Z1	X2	Y2	Z2	X3	Y3	Z3	X4	Y4	Z4	X5	Y5	Z5	X6	Y6	Z6	X7	Y7	Z7	X8	Y8	Z8	X9	Y9	Z9	X10	Y10	Z10	X11	Y11	Z11	X12	Y12	Z12	X13	Y13	Z13	X14	Y14	Z14	X15	Y15	Z15	X16	Y16	Z16	X17	Y17	Z17	X18	Y18	Z18	
83	0.691667	175.926	4.7764	41.9547	173.007	-10.5285	11.0914	178.563	-15.1777	-8.92809	190.295	-20.7662	-29.2196	194.864	31.6403	-15.0913	192.84	16.6874	-40.6988	192.827	-7.75468	-50.7888	218.422	37.3966	-11.9303	221.586	31.1874	-39.1943	221.485	7.4022	-58.2374	231.809	30.0705	-2.71365	239.266	26.7763	-26.4408	237.408	14.9593	-50.3207	246.859	14.234	2.91468	247.034	3.33543	-16.2681	242.702	-8.84591	-29.4898	226.679	28.8317	41.6015	220.776	21.7828	67.9895	197.957	32.1047	47.1618	
84	0.7	175.698	6.24539	41.9854	174.994	-6.83637	12.7308	178.05	-13.4549	-11.6248	189.718	-19.4428	-26.5578	191.875	34.0266	-16.0505	196.05	19.4505	-38.9271	194.151	-3.43238	-51.0912	217.614	36.019	-10.7382	222.674	28.7372	-41.8295	222.721	3.17868	-57.477	233.931	30.2319	-5.33136	244.081	24.7248	-26.9261	237.649	15.0831	-48.1113	247.448	13.2507	9.60735	252.104	4.67637	-12.5597	242.621	-5.45866	-29.5774	223.445	28.0366	39.5883	220.926	21.3951	65.5378	201.112	30.6094	46.8332	
85	0.708333	176.778	8.43929	40.5368	172.573	-5.89579	12.749	180.24	-11.1204	-9.57923	186.948	-19.6784	-28.6775	196.733	34.9248	-12.1478	197.223	24.1754	-37.8821	194.919	1.01047	-52.7805	219.983	36.9377	-14.2616	226.311	29.0003	-37.8409	220.066	1.14525	-56.7799	240.565	25.9106	-3.65863	241.905	24.389	-25.8275	243.446	11.9404	-48.3598	248.681	11.1181	6.1275	251.97	5.33228	-12.297	242.17	-5.52395	-32.4916	225.154	23.8585	43.6306	220.979	15.7914	68.8037	202.69	28.6588	52.1205	
86	0.716667	175.825	9.87248	40.0201	169.827	-4.98003	13.1192	176.495	-9.43154	-12.9864	185.588	-18.5461	-29.2981	199.76	36.9307	-14.2668	199.759	27.3941	-34.9026	198.117	3.72036	-54.5768	224.628	35.2967	-11.062	227.282	26.0709	-39.6387	217.131	-0.305084	-54.6074	242.347	24.565	-4.77915	242.699	22.2418	-28.9927	238.93	11.9795	-50.4548	248.202	9.15375	7.49252	250.017	6.10101	-14.5443	244.951	-1.91242	-32.282	228.325	21.0283	41.8285	223.922	16.1876	68.7258	204.591	30.7568	49.5852	
87	0.725	176.618	9.81664	42.7556	172.814	-1.12773	9.67461	176.399	-7.81325	-14.1119	189.578	-16.2794	-32.0664	203.979	37.8921	-12.6471	201.663	30.6928	-34.5249	194.718	15.9614	-54.8724	225.698	34.5377	-13.2955	224.53	26.3918	-38.8261	218.562	0.911847	-53.6194	241.555	22.7904	-4.19991	245.741	18.2626	-28.5057	240.517	10.7383	-48.8119	250.38	4.67869	7.00092	249.363	2.0396	-14.2454	243.574	-8.68789	-34.382	231.458	18.0757	44.9364	223.79	11.3627	65.7522	205.738	26.4655	52.354	
88	0.733333	176.758	10.0552	43.5626	169.337	-0.885089	10.2923	177.222	-6.41395	-10.8144	190.654	-15.3333	-28.7852	206.677	37.6026	-10.6708	205.214	31.7228	-37.6295	196.781	19.5646	-58.231	230.2	30.3029	-12.8439	228.042	23.3412	-38.1481	214.188	-0.42205	-55.1072	239.839	20.378	-6.47703	243.274	15.79	-31.1576	240.751	4.60632	-52.8163	247.434	2.40643	6.62089	248.827	-4.14408	-17.1863	237.814	-13.2988	-36.6677	230.074	16.0129	39.7547	223.441	10.5175	64.0826	207.052	27.2631	50.8467	
89	0.741667	179.696	12.152	39.0773	171.05	-0.286243	11.3644	175.782	-5.92982	-13.5307	186.458	-15.7333	-27.489	207.128	37.2002	-10.5609	203.477	35.2409	-33.7634	203.371	23.1522	-59.1216	229.631	26.1597	-11.6778	225.23	18.8815	-40.9415	209.614	-4.54579	-53.877	240.976	16.1491	-6.90165	244.455	10.2238	-28.7872	236.684	4.01075	-50.6816	249.06	-5.15409	4.4648	246.502	-7.65315	-15.7325	237.404	-16.9737	-34.0208	233.022	9.95142	43.0849	226.893	4.57458	64.2741	209.008	27.7	48.8316	
90	0.75	178.555	11.3801	41.3728	170.762	1.12357	9.00842	175.945	-5.18388	-15.3132	183.786	-16.9933	-32.1727	207.803	38.4612	-11.6005	209.317	33.2381	-33.5939	203.585	27.2944	-56.3652	230.831	22.8618	-10.7707	224.968	15.5609	-40.147	211.041	-6.17806	-53.1314	243.444	9.60941	-4.32629	242.687	6.19313	-33.1471	235.637	-3.12035	-53.198	246.767	-9.12767	4.74617	245.69	-16.736	-17.6318	232.446	-21.7515	-32.12	233.061	9.1677	39.3914	223.08	2.45668	67.5497	210.595	25.9432	49.5301	
91	0.758333	183.803	10.3305	41.7021	171.727	1.87482	9.03729	174.865	-7.16245	-8.75525	180.274	-16.8108	-30.4748	213.701	34.0459	-11.013	209.738	33.1269	-37.1506	206.417	26.7203	-57.9034	231.438	19.7212	-13.4375	224.046	9.50321	-42.924	207.088	-11.3677	-51.7862	243.836	7.48144	-6.80278	245.537	1.03266	-34.0084	235.468	-4.42457	-51.2016	248.869	-15.8554	4.20242	242.136	-20.6543	-19.687	228.648	-26.3237	-32.1703	236.536	5.30552	39.1567	228.041	-1.5005	66.157	212.578	21.0129	51.4033	
92	0.766667	184.849	11.1639	39.5978	176.45	-0.101059	12.3769	174.172	-6.44726	-10.2798	183.786	-17.2256	-27.6672	214.35	33.4598	-10.9326	213.142	32.643	-37.2192	211.126	25.2914	-57.91	233.428	17.5321	-13.6502	223.854	8.12559	-41.5333	209.877	-15.4348	-48.8245	244.38	4.68197	-6.46009	247.505	0.122524	-29.03	237.192	-10.5292	-54.3575	249.336	-18.6227	0.190548	243.736	-21.8855	-16.9206	225.266	-29.415	-33.0455	238.27	1.34396	40.646	230.27	-5.22373	67.3656	215.218	17.7142	50.313	
93	0.775	187.233	11.1791	40.6892	174.535	0.944125	12.2445	178.429	-4.84578	-13.4879	180.906	-16.0429	-31.9243	218.354	32.0102	-9.88008	215.584	32.9032	-33.8804	215.045	23.6466	-58.1327	234.126	17.3897	-11.55	227.52	2.66136	-41.7365	205.413	-16.6141	-45.7924	247.12	1.56315	-6.67591	248.106	-2.17189	-28.7785	239.328	-6.95187	-49.2246	248.717	-20.6387	2.30323	244.818	-27.0616	-17.8503	226.082	-32.5137	-32.3192	241.646	-1.77967	39.7251	227.18	-4.83124	67.7293	220.05	19.5986	48.8396	
94	0.783333	187.939	9.09087	43.4515	175.815	1.09248	14.0595	177.989	-4.12963	-13.5134	187.097	-17.2578	-31.9619	222.993	29.0102	-11.1212	220.792	29.2771	-36.709	214.483	26.3208	-56.9994	237.633	14.8713	-13.261	228.014	2.12195	-40.8691	205.164	-18.5709	-42.8792	250.652	-1.06537	-6.10288	250.958	-6.12651	-28.9568	243.867	-12.4413	-50.222	247.995	-20.0856	5.27075	244.934	-25.7723	-17.551	225.989	-33.1741	-34.152	241.153	-4.17233	40.0556	232.357	-6.83338	63.0014	219.386	18.7743	52.6758	
95	0.791667	187.529	11.4093	40.2282	176.067	2.74301	11.5674	180.582	-4.35485	-15.8927	189.778	-16.0754	-29.3069	222.18	30.9329	-9.00791	222.157	28.6397	-35.9676	215.859	24.6484	-56.739	240.628	11.4948	-11.1631	230.085	2.94217	-40.4449	207.932	-19.0999	-41.2717	249.768	-0.516181	-4.0121	251.241	-4.62388	-28.9424	243.88	-11.8995	-50.7094	250.357	-20.5525	3.53599	245.679	-28.4593	-19.1688	229.567	-33.4778	-31.7843	241.327	-1.48747	41.3711	233.119	-6.1873	64.5244	223.92	16.3701	48.4843	
96	0.8	187.256	12.5671	39.3955	182.128	1.27332	9.90856	181.909	-4.54741	-11.6297	190.42	-16.2818	-30.9504	220.968	32.5404	-10.4614	218.968	31.9728	-33.5805	218.84	23.1797	-55.9091	237.969	15.7078	-16.9364	230.685	0.938666	-40.6302	207.389	-16.5018	-41.1473	250.788	-2.01731	-4.03997	250.824	-4.66638	-33.6768	240.403	-7.89425	-53.6592	253.556	-23.2683	5.28006	245.46	-24.3402	-19.6555	233.609	-32.3677	-33.5397	239.494	-0.822631	41.8081	231.806	-3.06017	63.4424	220.908	17.4614	51.9126	
97	0.808333	185.85	11.8705	39.0058	181.207	1.96757	11.5346	178.046	-3.09685	-12.3839	190.914	-15.8243	-30.3282	222.588	31.0952	-10.2044	219.524	29.734	-34.8462	216.35	23.4372	-57.25	237.152	17.4447	-17.0358	227.649	5.4162	-40.465	204.509	-17.7185	-38.763	250.828	0.242884	-8.18549	252.092	-4.61859	-30.3868	243.131	-11.1611	-52.2518	250.965	-18.859	3.79357	246.591	-27.913	-20.3062	229.921	-33.8573	-34.888	241.555	-1.36154	39.2758	233.236	-2.53604	63.4494	220.153	19.1114	49.2892	
98	0.816667	184.147	11.2489	41.9535	176.384	1.43773	12.9164	180.997	-4.5925	-10.2964	189.433	-16.3461	-32.4255	222.194	30.5887	-10.4496	221.129	28.5752	-34.9433	213.784	25.9464	-59.3062	238.389	16.0253	-15.9488	226.647	2.65524	-41.792	205.228	-14.8889	-40.1574	249.372	0.00579187	-4.65544	250.341	-2.6105	-29.7369	242.054	-8.88767	-50.4222	252.408	-21.7688	5.39595	243.353	-22.305	-21.0367	227.026	-30.3447	-32.171	238.019	0.694209	41.0695	231.626	-4.59135	66.0868	218.735	20.5606	47.0991	
99	0.825	184.77	12.3401	40.2485	177.906	0.513695	12.301	180.455	-4.95038	-13.5647	188.126	-16.9383	-33.7475	218.258	32.3111	-10.69	217.505	31.137	-33.6116	214.459	24.13	-59.6232	235.29	18.6128	-16.2825	227.57	4.86516	-40.0423	203.332	-15.1116	-39.3421	248.357	1.67997	-7.06706	249.896	-3.80927	-32.4254	241.461	-11.1093	-51.9893	251.959	-20.274	1.59694	243.667	-27.0148	-19.956	223.884	-30.055	-32.8353	239.458	-0.0114363	38.044	233.203	-4.85863	65.2373	217.685	18.8362	48.1025	
100	0.833333	185.428	10.5424	40.9001	174.781	1.18692	11.1329	176.371	-6.42876	-11.0567	189.718	-17.2012	-29.9902	220.453	30.0056	-11.4018	218.056	30.3637	-37.2923	215.943	23.8494	-56.5161	235.142	15.5011	-15.3822	226.31	1.79032	-40.908	204.004	-16.9327	-38.9985	247.916	1.26512	-5.28057	247.862	-1.15333	-32.6406	237.366	-10.856	-55.1029	248.751	-18.8704	3.57933	241.963	-22.8345	-18.7137	221.56	-33.2338	-29.5896	236.253	1.60482	39.2854	232.729	-4.85403	63.7513	219.034	19.5318	48.6416	
101	0.841667	184.193	12.604	37.2442	178.301	0.126494	9.94304	177.247	-5.71232	-15.4496	182.777	-16.8868	-31.0615	217.378	33.2415	-13.7088	216.667	31.1321	-36.0536	214.629	22.5258	-60.2357	234.945	15.9066	-17.5993	225.241	4.74815	-40.4364	199.923	-18.2119	-37.8911	245.448	4.06758	-7.33852	246.338	-1.56391	-32.6031	236.576	-9.24915	-53.715	246.056	-17.6918	4.02449	238.593	-24.7653	-19.5891	218.139	-32.2919	-29.1192	236.151	-0.641925	41.5461	228.211	-3.57197	64.2554	219.449	18.3375	47.9103	
102	0.85	185.884	10.6117	39.3043	174.612	0.724784	10.7108	175.641	-6.52042	-15.144	182.901	-18.2264	-28.2544	218.59	30.7652	-11.19	218.454	28.8142	-35.3285	214.444	21.7143	-58.8949	234.432	14.9396	-15.379	224.038	0.464254	-41.5599	199.602	-22.4761	-35.4808	245.753	0.467122	-5.26947	246.1	-1.71106	-31.5751	237.414	-9.56136	-52.7651	247.022	-18.25	0.656619	239.218	-25.8021	-19.1909	218.553	-33.6254	-26.9681	237.399	2.35638	37.2203	229.702	-3.99674	65.8799	219.131	17.6684	48.4979	
103	0.858333	181.944	11.905	40.5362	174.821	0.560917	11.6513	177.25	-6.61416	-11.3731	185.369	-18.4383	-32.7323	219.889	29.0613	-13.9324	215.405	28.7831	-38.7996	210.143	22.8608	-60.8943	234.227	12.4008	-15.4036	220.356	1.34142	-40.862	198.039	-18.2994	-36.674	245.617	2.45319	-7.87867	246.624	-2.547	-30.4923	238.601	-10.6222	-51.6955	248.633	-19.7977	0.596684	241.085	-23.9406	-19.1983	219.685	-31.769	-28.9917	238.337	0.397483	38.9122	228.695	-2.27114	65.0975	215.285	20.9572	48.9798	
104	0.866667	184.981	8.73925	42.1446	172.492	1.62968	9.49479	178.377	-6.49329	-12.1255	184.466	-17.2765	-28.9195	215.531	32.598	-11.175	213.738	30.1349	-38.4137	211.839	19.9387	-58.8873	230.674	17.2082	-17.7482	222.126	0.53207	-40.2668	200.16	-21.3345	-36.0718	246.413	1.54093	-6.9307	244.971	0.0315118	-32.9468	238.9	-12.4216	-52.6657	248.497	-18.0935	3.97251	242.197	-24.9307	-19.0217	217.9	-30.6934	-30.8968	236.574	0.971579	42.6624	228.23	-4.65635	66.2429	216.672	16.0822	49.8191	
